<svg width="220" height="220" viewBox="0 0 220 220" fill="none" xmlns="http://www.w3.org/2000/svg">
<path d="M97.3682 64.0557C101.464 64.0557 104.696 65.5277 107.064 68.4717C109.496 71.4157 110.712 75.4484 110.712 80.5684C110.712 87.8003 109.144 95.8322 106.008 104.664C109.272 105.24 113.608 105.736 118.024 105.736C122.504 96.2003 127.912 88.2637 134.248 81.9277C140.52 75.6559 146.728 72.5205 152.872 72.5205C158.504 72.5205 162.728 75.4963 165.544 81.4482C168.36 87.4642 169.96 95.4961 170.344 105.544C174.184 94.408 178.536 86.1197 183.4 80.6797C188.2 75.24 193.32 72.5206 198.76 72.5205C204.904 72.5205 209.544 76.3283 212.68 83.9443C215.816 91.6243 217.384 101.929 217.384 114.856C217.384 124.264 216.552 134.6 214.888 145.864C214.44 149.064 213.64 151.272 212.488 152.488C211.272 153.768 209.384 154.408 206.824 154.408C204.904 154.408 203.432 153.992 202.408 153.16C201.32 152.328 200.776 150.792 200.776 148.552C200.776 148.104 200.84 147.24 200.968 145.96C202.888 132.84 203.848 121.672 203.848 112.456C203.848 103.88 203.112 97.256 201.64 92.584C200.168 87.9121 198.183 85.5762 195.688 85.5762C193.448 85.5765 190.76 87.9124 187.624 92.584C184.424 97.3199 181.256 104.296 178.12 113.512C174.984 122.792 172.328 133.832 170.152 146.632C169.64 149.576 168.712 151.592 167.368 152.68C165.96 153.832 164.072 154.408 161.704 154.408C159.72 154.408 158.28 153.96 157.384 153.064C156.424 152.232 155.944 150.952 155.944 149.224C155.944 148.2 156.008 147.4 156.136 146.824C157.928 136.392 158.824 125.96 158.824 115.528C158.824 108.424 158.6 102.76 158.152 98.5361C157.64 94.3121 156.712 91.0798 155.368 88.8398C153.96 86.664 151.944 85.5763 149.32 85.5762C146.248 85.5762 142.824 87.8803 139.048 92.4883C135.272 97.1602 131.816 102.952 128.68 109.864C132.584 112.296 135.528 115.432 137.512 119.272C139.496 123.176 140.488 127.656 140.488 132.712C140.488 137.768 139.72 142.024 138.184 145.48C136.584 149 134.44 151.624 131.752 153.352C129 155.08 125.96 155.944 122.632 155.944C118.536 155.944 115.304 154.472 112.936 151.528C110.504 148.584 109.288 144.552 109.288 139.432C109.288 132.2 110.856 124.168 113.992 115.336C108.936 115.4 106.008 115.096 101.976 114.264C97.4956 123.8 92.088 131.736 85.752 138.072C79.48 144.344 73.2719 147.48 67.1279 147.48C61.4959 147.48 57.2721 144.504 54.4561 138.552C51.6401 132.536 50.0403 124.504 49.6562 114.456C45.8162 125.592 41.4636 133.88 36.5996 139.32C31.7998 144.76 26.68 147.48 21.2402 147.48C15.0962 147.48 10.4563 143.672 7.32031 136.056C4.18437 128.376 2.61621 118.071 2.61621 105.144C2.61624 95.7357 3.44833 85.3996 5.1123 74.1357C5.56031 70.9359 6.35976 68.7277 7.51172 67.5117C8.72769 66.2318 10.6159 65.5918 13.1758 65.5918C15.0957 65.5918 16.5678 66.0079 17.5918 66.8398C18.6798 67.6718 19.2236 69.2082 19.2236 71.4482C19.2236 71.8963 19.1602 72.7603 19.0322 74.04C17.1122 87.16 16.1523 98.328 16.1523 107.544C16.1523 116.12 16.8884 122.744 18.3604 127.416C19.8323 132.088 21.8158 134.424 24.3115 134.424C26.5515 134.424 29.24 132.088 32.376 127.416C35.5759 122.68 38.7439 115.704 41.8799 106.488C45.0159 97.2083 47.6717 86.1681 49.8477 73.3682C50.3596 70.4243 51.288 68.4084 52.6318 67.3203C54.0398 66.1683 55.9279 65.5918 58.2959 65.5918C60.2798 65.5918 61.7202 66.0396 62.6162 66.9355C63.5762 67.7675 64.0557 69.0484 64.0557 70.7764C64.0556 71.8 63.9922 72.5999 63.8643 73.1758C62.0723 83.6077 61.1758 94.0398 61.1758 104.472C61.1758 111.576 61.3997 117.24 61.8477 121.464C62.3597 125.688 63.2878 128.92 64.6318 131.16C66.0398 133.336 68.0558 134.424 70.6797 134.424C73.7517 134.424 77.1761 132.12 80.9521 127.512C84.7281 122.84 88.1844 117.048 91.3203 110.136C87.4165 107.704 84.4723 104.568 82.4883 100.729C80.5043 96.8245 79.5117 92.3441 79.5117 87.2881C79.5117 82.2322 80.2805 77.9765 81.8164 74.5205C83.4164 71.0006 85.5601 68.3764 88.248 66.6484C91 64.9204 94.0402 64.0557 97.3682 64.0557ZM124.744 119.464C122.248 126.632 121 132.552 121 137.224C121 139.912 121.352 141.864 122.056 143.08C122.76 144.36 123.72 145 124.936 145C126.664 145 128.072 143.976 129.16 141.928C130.248 139.944 130.792 137.096 130.792 133.384C130.792 127.112 128.776 122.472 124.744 119.464ZM95.0645 75C93.3364 75 91.9278 76.0243 90.8398 78.0723C89.7519 80.0563 89.208 82.9044 89.208 86.6162C89.208 92.8881 91.2239 97.5282 95.2559 100.536C97.7518 93.3683 98.9999 87.4483 99 82.7764C99 80.0884 98.6483 78.1359 97.9443 76.9199C97.2404 75.6401 96.2802 75.0002 95.0645 75Z" fill="#FF309F"/>
</svg>
