<svg width="632" height="172" viewBox="0 0 632 172" fill="none" xmlns="http://www.w3.org/2000/svg">
<path d="M131.028 85.028C132.5 85.028 133.556 85.348 134.196 85.988C134.9 86.628 135.252 87.46 135.252 88.484C135.252 90.148 134.74 91.62 133.716 92.9C132.756 94.18 131.22 94.852 129.108 94.916C124.052 94.98 119.508 94.596 115.476 93.764C110.996 103.3 105.588 111.236 99.252 117.572C92.98 123.844 86.772 126.98 80.628 126.98C74.996 126.98 70.772 124.004 67.956 118.052C65.14 112.036 63.54 104.004 63.156 93.956C59.316 105.092 54.964 113.38 50.1 118.82C45.3 124.26 40.18 126.98 34.74 126.98C28.596 126.98 23.956 123.172 20.82 115.556C17.684 107.876 16.116 97.572 16.116 84.644C16.116 75.236 16.948 64.9 18.612 53.636C19.06 50.436 19.86 48.228 21.012 47.012C22.228 45.732 24.116 45.092 26.676 45.092C28.596 45.092 30.068 45.508 31.092 46.34C32.18 47.172 32.724 48.708 32.724 50.948C32.724 51.396 32.66 52.26 32.532 53.54C30.612 66.66 29.652 77.828 29.652 87.044C29.652 95.62 30.388 102.244 31.86 106.916C33.332 111.588 35.316 113.924 37.812 113.924C40.052 113.924 42.74 111.588 45.876 106.916C49.076 102.18 52.244 95.204 55.38 85.988C58.516 76.708 61.172 65.668 63.348 52.868C63.86 49.924 64.788 47.908 66.132 46.82C67.54 45.668 69.428 45.092 71.796 45.092C73.78 45.092 75.22 45.54 76.116 46.436C77.076 47.268 77.556 48.548 77.556 50.276C77.556 51.3 77.492 52.1 77.364 52.676C75.572 63.108 74.676 73.54 74.676 83.972C74.676 91.076 74.9 96.74 75.348 100.964C75.86 105.188 76.788 108.42 78.132 110.66C79.54 112.836 81.556 113.924 84.18 113.924C87.252 113.924 90.676 111.62 94.452 107.012C98.228 102.34 101.684 96.548 104.82 89.636C100.916 87.204 97.972 84.068 95.988 80.228C94.004 76.324 93.012 71.844 93.012 66.788C93.012 61.732 93.78 57.476 95.316 54.02C96.916 50.5 99.06 47.876 101.748 46.148C104.5 44.42 107.54 43.556 110.868 43.556C114.964 43.556 118.196 45.028 120.564 47.972C122.996 50.916 124.212 54.948 124.212 60.068C124.212 67.3 122.644 75.332 119.508 84.164C122.772 84.74 126.612 85.028 131.028 85.028ZM102.708 66.116C102.708 72.388 104.724 77.028 108.756 80.036C111.252 72.868 112.5 66.948 112.5 62.276C112.5 59.588 112.148 57.636 111.444 56.42C110.74 55.14 109.78 54.5 108.564 54.5C106.836 54.5 105.428 55.524 104.34 57.572C103.252 59.556 102.708 62.404 102.708 66.116ZM132.737 126.98C130.305 126.98 128.577 125.7 127.553 123.14C126.593 120.58 126.113 116.484 126.113 110.852C126.113 102.532 127.297 94.628 129.665 87.14C130.241 85.284 131.169 83.94 132.449 83.108C133.793 82.212 135.649 81.764 138.017 81.764C139.297 81.764 140.193 81.924 140.705 82.244C141.217 82.564 141.473 83.172 141.473 84.068C141.473 85.092 140.993 87.396 140.033 90.98C139.393 93.54 138.881 95.78 138.497 97.7C138.113 99.62 137.793 101.988 137.537 104.804C139.649 99.3 142.017 94.82 144.641 91.364C147.265 87.908 149.825 85.444 152.321 83.972C154.881 82.5 157.217 81.764 159.329 81.764C163.489 81.764 165.569 83.844 165.569 88.004C165.569 88.836 165.281 90.852 164.705 94.052C164.193 96.612 163.937 98.212 163.937 98.852C163.937 101.092 164.737 102.212 166.337 102.212C168.129 102.212 170.433 100.804 173.249 97.988C174.081 97.156 174.945 96.74 175.841 96.74C176.673 96.74 177.313 97.124 177.76 97.892C178.273 98.596 178.529 99.556 178.529 100.772C178.529 103.14 177.889 104.996 176.609 106.34C174.817 108.196 172.705 109.796 170.273 111.14C167.905 112.42 165.377 113.06 162.689 113.06C159.297 113.06 156.705 112.196 154.913 110.468C153.185 108.74 152.321 106.404 152.321 103.46C152.321 102.5 152.417 101.54 152.609 100.58C152.737 99.3 152.801 98.436 152.801 97.988C152.801 96.964 152.449 96.452 151.745 96.452C150.785 96.452 149.505 97.54 147.905 99.716C146.369 101.828 144.833 104.644 143.297 108.164C141.761 111.684 140.513 115.396 139.553 119.3C138.849 122.308 138.017 124.356 137.057 125.444C136.161 126.468 134.721 126.98 132.737 126.98ZM182.184 75.428C179.496 75.428 177.48 74.82 176.136 73.604C174.792 72.324 174.12 70.564 174.12 68.324C174.12 66.084 174.984 64.228 176.712 62.756C178.504 61.22 180.712 60.452 183.336 60.452C185.704 60.452 187.624 61.028 189.096 62.18C190.568 63.332 191.304 64.964 191.304 67.076C191.304 69.636 190.472 71.684 188.808 73.22C187.144 74.692 184.936 75.428 182.184 75.428ZM181.416 126.98C177.256 126.98 174.216 125.508 172.296 122.564C170.44 119.62 169.512 115.716 169.512 110.852C169.512 107.972 169.864 104.292 170.568 99.812C171.336 95.268 172.296 91.044 173.448 87.14C174.024 85.092 174.792 83.684 175.752 82.916C176.712 82.148 178.248 81.764 180.36 81.764C183.624 81.764 185.256 82.852 185.256 85.028C185.256 86.628 184.648 90.34 183.432 96.164C181.896 103.204 181.128 107.972 181.128 110.468C181.128 112.388 181.384 113.86 181.896 114.884C182.408 115.908 183.272 116.42 184.488 116.42C185.64 116.42 187.08 115.62 188.808 114.02C190.536 112.42 192.84 109.892 195.72 106.436C196.488 105.54 197.352 105.092 198.312 105.092C199.144 105.092 199.784 105.476 200.232 106.244C200.744 107.012 201 108.068 201 109.412C201 111.972 200.392 113.956 199.176 115.364C192.84 123.108 186.92 126.98 181.416 126.98ZM236.049 105.092C236.881 105.092 237.521 105.476 237.969 106.244C238.481 107.012 238.737 108.068 238.737 109.412C238.737 111.972 238.129 113.956 236.913 115.364C234.161 118.756 231.153 121.54 227.889 123.716C224.625 125.892 220.881 126.98 216.657 126.98C203.601 126.98 197.073 117.796 197.073 99.428C197.073 96.612 197.169 93.764 197.361 90.884H193.617C191.697 90.884 190.385 90.532 189.681 89.828C189.041 89.124 188.721 88.004 188.721 86.468C188.721 82.884 190.161 81.092 193.041 81.092H198.513C199.601 74.052 201.265 67.62 203.505 61.796C205.745 55.972 208.433 51.332 211.569 47.876C214.769 44.42 218.193 42.692 221.841 42.692C224.529 42.692 226.641 43.876 228.177 46.244C229.713 48.612 230.481 51.588 230.481 55.172C230.481 65.092 226.321 73.732 218.001 81.092H228.753C229.777 81.092 230.513 81.316 230.961 81.764C231.409 82.212 231.633 83.044 231.633 84.26C231.633 88.676 228.017 90.884 220.785 90.884H209.073C208.945 94.084 208.881 96.58 208.881 98.372C208.881 105.028 209.649 109.7 211.185 112.388C212.785 115.076 215.281 116.42 218.673 116.42C221.425 116.42 223.857 115.588 225.969 113.924C228.081 112.26 230.577 109.764 233.457 106.436C234.225 105.54 235.089 105.092 236.049 105.092ZM219.249 51.908C218.289 51.908 217.201 53.124 215.985 55.556C214.833 57.924 213.713 61.252 212.625 65.54C211.601 69.764 210.737 74.468 210.033 79.652C213.809 76.388 216.625 72.74 218.481 68.708C220.401 64.612 221.361 60.9 221.361 57.572C221.361 53.796 220.657 51.908 219.249 51.908ZM273.737 105.092C274.569 105.092 275.209 105.476 275.656 106.244C276.169 107.012 276.425 108.068 276.425 109.412C276.425 111.972 275.817 113.956 274.601 115.364C272.233 118.244 268.873 120.9 264.521 123.332C260.233 125.764 255.625 126.98 250.697 126.98C243.977 126.98 238.761 125.156 235.049 121.508C231.337 117.86 229.48 112.868 229.48 106.532C229.48 102.116 230.409 98.02 232.265 94.244C234.121 90.404 236.681 87.364 239.945 85.124C243.273 82.884 247.017 81.764 251.177 81.764C254.889 81.764 257.865 82.884 260.105 85.124C262.345 87.3 263.465 90.276 263.465 94.052C263.465 98.468 261.865 102.276 258.665 105.476C255.529 108.612 250.185 111.108 242.633 112.964C244.233 115.908 247.273 117.38 251.753 117.38C254.633 117.38 257.897 116.388 261.545 114.404C265.257 112.356 268.457 109.7 271.145 106.436C271.913 105.54 272.777 105.092 273.737 105.092ZM249.545 91.172C247.177 91.172 245.161 92.548 243.497 95.3C241.897 98.052 241.097 101.38 241.097 105.284V105.476C244.873 104.58 247.849 103.236 250.025 101.444C252.201 99.652 253.289 97.572 253.289 95.204C253.289 93.988 252.937 93.028 252.233 92.324C251.593 91.556 250.697 91.172 249.545 91.172ZM286.272 126.98C283.904 126.98 282.208 126.468 281.184 125.444C280.16 124.356 279.648 122.34 279.648 119.396C279.648 117.412 279.84 114.884 280.224 111.812C280.672 108.676 281.376 104.388 282.336 98.948C284 88.9 285.312 80.196 286.272 72.836C286.848 68.228 287.136 64.388 287.136 61.316C287.136 58.436 286.08 56.996 283.968 56.996C282.304 56.996 280.288 57.86 277.92 59.588C275.616 61.252 273.056 63.94 270.24 67.652C269.344 68.868 268.352 69.476 267.264 69.476C266.368 69.476 265.568 69.06 264.864 68.228C264.224 67.332 263.904 66.34 263.904 65.252C263.904 64.228 264.096 63.204 264.48 62.18C264.928 61.092 265.632 59.876 266.592 58.532C269.664 54.244 273.088 50.948 276.864 48.644C280.64 46.276 284.416 45.092 288.192 45.092C291.712 45.092 294.4 46.212 296.256 48.452C298.176 50.692 299.136 53.956 299.136 58.244C299.136 59.972 298.976 62.02 298.656 64.388C298.336 66.692 298.048 68.58 297.792 70.052C297.536 71.524 297.344 72.548 297.216 73.124C300.864 62.692 304.96 55.428 309.504 51.332C314.048 47.172 319.04 45.092 324.48 45.092C328.64 45.092 331.904 46.564 334.272 49.508C336.704 52.452 337.92 56.612 337.92 61.988C337.92 64.1 337.632 66.724 337.056 69.86C340.256 61.028 344 54.692 348.288 50.852C352.576 47.012 357.504 45.092 363.072 45.092C367.552 45.092 370.976 46.532 373.344 49.412C375.776 52.292 376.992 56.324 376.992 61.508C376.992 64.324 376.576 67.748 375.744 71.78L369.888 99.236C369.248 102.436 368.928 105.188 368.928 107.492C368.928 110.18 369.536 112.196 370.752 113.54C372.032 114.884 373.792 115.556 376.032 115.556C378.144 115.556 380.192 114.852 382.176 113.444C384.224 112.036 386.624 109.7 389.376 106.436C390.144 105.54 391.008 105.092 391.968 105.092C392.8 105.092 393.44 105.476 393.888 106.244C394.4 107.012 394.656 108.068 394.656 109.412C394.656 111.908 394.048 113.892 392.832 115.364C389.504 119.396 386.208 122.34 382.944 124.196C379.68 126.052 376.256 126.98 372.672 126.98C367.232 126.98 362.976 125.38 359.904 122.18C356.832 118.916 355.296 114.564 355.296 109.124C355.296 105.348 356.064 99.876 357.6 92.708L361.44 75.14C361.568 74.564 361.792 73.54 362.112 72.068C362.432 70.596 362.688 69.22 362.88 67.94C363.072 66.596 363.168 65.284 363.168 64.004C363.168 61.764 362.72 60.1 361.824 59.012C360.992 57.86 359.776 57.284 358.176 57.284C355.168 57.284 352 59.236 348.672 63.14C345.408 66.98 342.272 73.38 339.264 82.34C336.32 91.3 333.92 102.948 332.064 117.284C331.616 121.124 330.816 123.716 329.664 125.06C328.576 126.34 326.784 126.98 324.288 126.98C322.112 126.98 320.512 126.468 319.488 125.444C318.528 124.42 318.048 122.5 318.048 119.684C318.048 117.06 318.4 113.636 319.104 109.412C319.808 105.124 320.704 100.1 321.792 94.34C324.736 78.852 326.208 68.868 326.208 64.388C326.208 61.956 325.728 60.164 324.768 59.012C323.872 57.86 322.496 57.284 320.64 57.284C317.504 57.284 314.272 59.076 310.944 62.66C307.616 66.18 304.352 72.484 301.152 81.572C298.016 90.596 295.392 102.82 293.28 118.244C292.832 121.508 292.16 123.78 291.264 125.06C290.432 126.34 288.768 126.98 286.272 126.98ZM429.737 105.092C430.569 105.092 431.209 105.476 431.656 106.244C432.169 107.012 432.425 108.068 432.425 109.412C432.425 111.972 431.817 113.956 430.601 115.364C428.233 118.244 424.873 120.9 420.521 123.332C416.233 125.764 411.625 126.98 406.697 126.98C399.977 126.98 394.761 125.156 391.049 121.508C387.337 117.86 385.48 112.868 385.48 106.532C385.48 102.116 386.409 98.02 388.265 94.244C390.121 90.404 392.681 87.364 395.945 85.124C399.273 82.884 403.017 81.764 407.177 81.764C410.889 81.764 413.865 82.884 416.105 85.124C418.345 87.3 419.465 90.276 419.465 94.052C419.465 98.468 417.865 102.276 414.665 105.476C411.529 108.612 406.185 111.108 398.633 112.964C400.233 115.908 403.273 117.38 407.753 117.38C410.633 117.38 413.897 116.388 417.545 114.404C421.257 112.356 424.457 109.7 427.145 106.436C427.913 105.54 428.777 105.092 429.737 105.092ZM405.545 91.172C403.177 91.172 401.161 92.548 399.497 95.3C397.897 98.052 397.097 101.38 397.097 105.284V105.476C400.873 104.58 403.849 103.236 406.025 101.444C408.201 99.652 409.289 97.572 409.289 95.204C409.289 93.988 408.937 93.028 408.233 92.324C407.593 91.556 406.697 91.172 405.545 91.172ZM431.424 126.98C428.992 126.98 427.264 125.7 426.24 123.14C425.28 120.58 424.8 116.484 424.8 110.852C424.8 102.532 425.984 94.628 428.352 87.14C428.928 85.284 429.856 83.94 431.136 83.108C432.48 82.212 434.336 81.764 436.704 81.764C437.984 81.764 438.88 81.924 439.392 82.244C439.904 82.564 440.16 83.172 440.16 84.068C440.16 85.092 439.68 87.396 438.72 90.98C438.08 93.54 437.568 95.78 437.184 97.7C436.8 99.62 436.48 101.988 436.224 104.804C438.336 99.3 440.704 94.82 443.328 91.364C445.952 87.908 448.512 85.444 451.008 83.972C453.568 82.5 455.904 81.764 458.016 81.764C462.176 81.764 464.256 83.844 464.256 88.004C464.256 90.5 463.552 95.012 462.144 101.54C460.928 107.108 460.32 110.788 460.32 112.58C460.32 115.14 461.248 116.42 463.104 116.42C464.384 116.42 465.888 115.652 467.616 114.116C469.408 112.516 471.776 109.956 474.72 106.436C475.488 105.54 476.352 105.092 477.312 105.092C478.144 105.092 478.784 105.476 479.232 106.244C479.744 107.012 480 108.068 480 109.412C480 111.972 479.392 113.956 478.176 115.364C475.424 118.756 472.448 121.54 469.248 123.716C466.112 125.892 462.528 126.98 458.496 126.98C455.232 126.98 452.768 126.052 451.104 124.196C449.44 122.276 448.608 119.524 448.608 115.94C448.608 114.148 449.056 110.948 449.952 106.34C450.784 102.308 451.2 99.524 451.2 97.988C451.2 96.964 450.848 96.452 450.144 96.452C449.312 96.452 448.128 97.54 446.592 99.716C445.12 101.828 443.584 104.644 441.984 108.164C440.448 111.684 439.2 115.396 438.24 119.3C437.536 122.308 436.704 124.356 435.744 125.444C434.848 126.468 433.408 126.98 431.424 126.98ZM515.049 105.092C515.881 105.092 516.521 105.476 516.969 106.244C517.481 107.012 517.737 108.068 517.737 109.412C517.737 111.972 517.129 113.956 515.913 115.364C513.161 118.756 510.153 121.54 506.889 123.716C503.625 125.892 499.881 126.98 495.657 126.98C482.601 126.98 476.073 117.796 476.073 99.428C476.073 96.612 476.169 93.764 476.361 90.884H472.617C470.697 90.884 469.385 90.532 468.681 89.828C468.041 89.124 467.721 88.004 467.721 86.468C467.721 82.884 469.161 81.092 472.041 81.092H477.513C478.601 74.052 480.265 67.62 482.505 61.796C484.745 55.972 487.433 51.332 490.569 47.876C493.769 44.42 497.193 42.692 500.841 42.692C503.529 42.692 505.641 43.876 507.177 46.244C508.713 48.612 509.481 51.588 509.481 55.172C509.481 65.092 505.321 73.732 497.001 81.092H507.753C508.777 81.092 509.513 81.316 509.961 81.764C510.409 82.212 510.633 83.044 510.633 84.26C510.633 88.676 507.017 90.884 499.785 90.884H488.073C487.945 94.084 487.881 96.58 487.881 98.372C487.881 105.028 488.649 109.7 490.185 112.388C491.785 115.076 494.281 116.42 497.673 116.42C500.425 116.42 502.857 115.588 504.969 113.924C507.081 112.26 509.577 109.764 512.457 106.436C513.225 105.54 514.089 105.092 515.049 105.092ZM498.249 51.908C497.289 51.908 496.201 53.124 494.985 55.556C493.833 57.924 492.713 61.252 491.625 65.54C490.601 69.764 489.737 74.468 489.033 79.652C492.809 76.388 495.625 72.74 497.481 68.708C499.401 64.612 500.361 60.9 500.361 57.572C500.361 53.796 499.657 51.908 498.249 51.908ZM558.881 97.028C559.713 97.028 560.353 97.444 560.801 98.276C561.249 99.108 561.473 100.164 561.473 101.444C561.473 104.516 560.545 106.34 558.689 106.916C554.849 108.26 550.625 109.028 546.017 109.22C544.801 114.596 542.401 118.916 538.817 122.18C535.233 125.38 531.169 126.98 526.625 126.98C522.785 126.98 519.489 126.052 516.737 124.196C514.049 122.34 512.001 119.876 510.593 116.804C509.185 113.732 508.48 110.404 508.48 106.82C508.48 101.956 509.409 97.636 511.265 93.86C513.121 90.02 515.681 87.044 518.945 84.932C522.209 82.756 525.825 81.668 529.793 81.668C534.657 81.668 538.561 83.364 541.505 86.756C544.513 90.084 546.273 94.212 546.785 99.14C549.793 98.948 553.377 98.308 557.537 97.22C558.049 97.092 558.497 97.028 558.881 97.028ZM527.393 116.804C529.441 116.804 531.201 115.972 532.673 114.308C534.209 112.644 535.233 110.244 535.745 107.108C533.761 105.764 532.225 104.004 531.137 101.828C530.113 99.652 529.601 97.348 529.601 94.916C529.601 93.892 529.697 92.868 529.889 91.844H529.409C526.849 91.844 524.705 93.092 522.977 95.588C521.313 98.02 520.481 101.476 520.481 105.956C520.481 109.476 521.153 112.164 522.497 114.02C523.905 115.876 525.537 116.804 527.393 116.804ZM592.017 94.916C593.425 94.916 594.609 95.428 595.569 96.452C596.593 97.412 597.105 98.628 597.105 100.1C597.105 100.932 596.913 101.828 596.529 102.788C595.505 105.156 594.065 107.14 592.209 108.74C590.353 110.34 588.305 111.14 586.065 111.14C584.273 111.14 582.737 110.5 581.457 109.22C580.241 107.94 579.633 106.212 579.633 104.036C579.633 102.82 579.697 101.508 579.825 100.1C579.953 99.076 580.017 98.372 580.017 97.988C580.017 97.476 579.889 97.092 579.633 96.836C579.441 96.58 579.185 96.452 578.865 96.452C577.969 96.452 576.753 97.54 575.217 99.716C573.681 101.828 572.145 104.644 570.609 108.164C569.073 111.684 567.825 115.396 566.865 119.3C566.161 122.372 565.361 124.42 564.465 125.444C563.569 126.468 562.097 126.98 560.049 126.98C557.617 126.98 555.889 125.7 554.865 123.14C553.905 120.58 553.425 116.484 553.425 110.852C553.425 102.532 554.609 94.628 556.977 87.14C557.553 85.284 558.481 83.94 559.761 83.108C561.105 82.212 562.961 81.764 565.329 81.764C566.609 81.764 567.505 81.924 568.017 82.244C568.529 82.564 568.785 83.172 568.785 84.068C568.785 85.092 568.305 87.396 567.345 90.98C566.705 93.54 566.193 95.78 565.809 97.7C565.425 99.62 565.105 101.988 564.849 104.804C566.961 99.3 569.329 94.82 571.953 91.364C574.577 87.908 577.137 85.444 579.633 83.972C582.129 82.5 584.401 81.764 586.449 81.764C588.305 81.764 589.713 82.308 590.673 83.396C591.697 84.42 592.209 85.956 592.209 88.004C592.209 89.22 591.857 91.524 591.153 94.916H592.017ZM604.412 155.972C602.684 155.972 601.308 155.556 600.284 154.724C599.324 153.956 598.94 152.612 599.132 150.692C600.54 138.596 603.1 120.452 606.812 96.26C607.068 94.468 607.804 89.7 609.02 81.956C610.236 74.148 611.292 66.916 612.188 60.26C613.084 53.54 613.852 47.396 614.492 41.828C614.684 39.972 615.42 38.66 616.7 37.892C617.98 37.124 619.484 36.74 621.212 36.74C625.116 36.74 626.876 38.436 626.492 41.828C625.66 49.06 624.732 56.324 623.708 63.62C622.684 70.852 621.66 77.668 620.636 84.068C619.676 90.404 619.068 94.468 618.812 96.26C615.1 120.452 612.54 138.596 611.132 150.692C610.94 152.612 610.204 153.956 608.924 154.724C607.644 155.556 606.14 155.972 604.412 155.972Z" fill="#FF309F"/>
</svg>
